<svg width="165" height="36" viewBox="0 0 165 36" fill="none" xmlns="http://www.w3.org/2000/svg">
<path d="M9.70783 23.5951C11.7355 23.5951 13.3793 21.9513 13.3793 19.9236C13.3793 17.8959 11.7355 16.2521 9.70783 16.2521C7.68014 16.2521 6.03638 17.8959 6.03638 19.9236C6.03638 21.9513 7.68014 23.5951 9.70783 23.5951Z" fill="white"/>
<path d="M6.11841 29.6853V26.6743H15.836C16.1773 26.6743 16.4544 26.3943 16.4544 26.0493V10.1619H19.5242V28.4405C19.5242 29.686 18.2116 29.686 18.2116 29.686H6.11841V29.6853Z" fill="white"/>
<path d="M13.4052 10.1619V13.1729H3.68823C3.34692 13.1729 3.06985 13.453 3.06985 13.7979V29.6853H0V11.4073C0 10.1619 1.31268 10.1619 1.31268 10.1619H13.4052Z" fill="white"/>
<path d="M29.2861 31.9162V13.2389H31.6474V15.1456C32.2255 14.3736 32.6431 14.0352 33.3827 13.5801C34.1224 13.1251 34.9659 12.8971 35.9143 12.8971C37.1277 12.8971 38.2372 13.2098 39.2427 13.8357C40.2478 14.4616 41.0347 15.3108 41.604 16.3819C42.1727 17.4534 42.4574 18.6247 42.4574 19.8952C42.4574 21.1657 42.1727 22.2564 41.604 23.3373C41.0352 24.4182 40.253 25.2861 39.2572 25.9401C38.2615 26.5945 37.1474 26.9218 35.9148 26.9218C34.9664 26.9218 34.1228 26.6943 33.3832 26.2392C32.6435 25.7842 32.1857 25.3952 31.6478 24.7422V31.9162H29.2866H29.2861ZM35.8291 24.6462C37.1563 24.6462 38.1997 24.1912 38.9586 23.2807C39.7169 22.3702 40.0966 21.2326 40.0966 19.8671C40.0966 18.5016 39.7127 17.3781 38.9445 16.4961C38.1763 15.6142 37.138 15.1732 35.8296 15.1732C34.5212 15.1732 33.4731 15.6142 32.7428 16.4961C32.0125 17.3781 31.6478 18.5301 31.6478 19.9523C31.6478 21.3745 32.0078 22.4891 32.7287 23.3518C33.4492 24.2151 34.4828 24.6462 35.8296 24.6462H35.8291Z" fill="white"/>
<path d="M64.0076 26.6091H61.675V24.7422C61.44 25.0816 60.926 25.5871 60.2668 26.0688C59.5431 26.5978 58.5928 26.9222 57.3223 26.9222C55.8046 26.9222 54.6339 26.3867 53.809 25.3152C52.9842 24.2441 52.5713 22.8542 52.5713 21.1474V13.2389H54.9325V20.5782C54.9325 21.7541 55.1933 22.7259 55.7148 23.4941C56.2363 24.2623 57.0185 24.6462 58.0615 24.6462C59.2182 24.6462 60.1095 24.2338 60.7354 23.4085C61.3613 22.5836 61.674 21.4789 61.674 20.0941V13.2389H64.0067V26.6091H64.0076Z" fill="white"/>
<path d="M67.1365 26.6091V13.2389H69.4977V15.2879C69.9275 14.5473 70.4836 14.1306 71.1479 13.6939C71.8117 13.2581 72.6838 13.0394 73.7652 13.0394C74.1252 13.0394 74.4762 13.0966 74.8175 13.2103V15.543C74.4379 15.4484 74.0587 15.4007 73.68 15.4007C70.8923 15.4007 69.4982 17.1552 69.4982 20.6634V26.6091H67.1369H67.1365Z" fill="white"/>
<path d="M86.3911 26.6091V24.7422C86.0002 25.3095 85.3954 25.7842 84.6557 26.2392C83.9161 26.6943 83.072 26.9218 82.1241 26.9218C80.891 26.9218 79.7773 26.5945 78.7812 25.9401C77.7855 25.2857 77.0032 24.4182 76.4345 23.3373C75.8657 22.2564 75.5811 21.109 75.5811 19.8952C75.5811 18.6813 75.8657 17.4534 76.4345 16.3819C77.0037 15.3108 77.7902 14.4616 78.7957 13.8357C79.8008 13.2098 80.9102 12.8971 82.1241 12.8971C83.072 12.8971 83.9161 13.1247 84.6557 13.5801C85.3954 14.0352 85.8583 14.3142 86.3911 15.1456V13.2389H88.7237V26.6091H86.3911ZM85.2961 23.3518C86.0259 22.4891 86.3911 21.3562 86.3911 19.9523C86.3911 18.5484 86.0254 17.3776 85.2961 16.4961C84.5658 15.6142 83.5275 15.1732 82.1812 15.1732C80.8348 15.1732 79.8345 15.6142 79.0658 16.4961C78.2976 17.3781 77.9137 18.5016 77.9137 19.8671C77.9137 21.2326 78.2929 22.3706 79.0518 23.2807C79.8101 24.1912 80.8531 24.6462 82.1812 24.6462C83.5093 24.6462 84.5658 24.2151 85.2961 23.3518Z" fill="white"/>
<path d="M50.7475 24.3606V26.609H46.5554C46.5554 26.609 44.9277 26.609 44.9277 25.0815V7.93169H47.289V23.5938C47.289 24.017 47.6321 24.3601 48.0553 24.3601H50.7475V24.3606Z" fill="white"/>
<path d="M97.6205 24.3606V26.609H93.4285C93.4285 26.609 91.8008 26.609 91.8008 25.0815V7.93169H94.162V23.5938C94.162 24.017 94.5052 24.3601 94.9283 24.3601H97.6205V24.3606Z" fill="white"/>
<path d="M114.041 27.2704C112.976 27.2704 112.044 26.9887 111.244 26.4254C110.444 25.8621 109.819 25.0762 109.368 24.0679C108.923 23.0595 108.701 21.885 108.701 20.5443C108.701 19.2092 108.923 18.0403 109.368 17.0375C109.819 16.0292 110.447 15.2461 111.253 14.6884C112.058 14.1251 112.996 13.8435 114.066 13.8435C114.855 13.8435 115.511 13.9843 116.035 14.266C116.559 14.542 116.979 14.8856 117.294 15.2968C117.61 15.7081 117.855 16.108 118.029 16.4967H118.165V9.69453H119.677V27H118.207V24.5918H118.029C117.855 24.9861 117.607 25.3917 117.286 25.8086C116.965 26.2198 116.539 26.5662 116.01 26.8479C115.486 27.1296 114.83 27.2704 114.041 27.2704ZM114.218 25.8931C115.058 25.8931 115.773 25.6649 116.365 25.2086C116.956 24.7467 117.407 24.1129 117.717 23.3074C118.032 22.4962 118.19 21.5667 118.19 20.5189C118.19 19.4824 118.035 18.567 117.725 17.7727C117.415 16.9727 116.965 16.3475 116.373 15.8968C115.782 15.4405 115.063 15.2123 114.218 15.2123C113.351 15.2123 112.619 15.4489 112.022 15.9221C111.43 16.3897 110.979 17.0234 110.67 17.8234C110.365 18.6233 110.213 19.5218 110.213 20.5189C110.213 21.5273 110.368 22.437 110.678 23.2482C110.988 24.0594 111.438 24.7044 112.03 25.1833C112.627 25.6565 113.357 25.8931 114.218 25.8931Z" fill="white"/>
<path d="M129.794 27.2704C128.673 27.2704 127.681 26.9859 126.819 26.417C125.963 25.848 125.293 25.0622 124.808 24.0594C124.324 23.0511 124.082 21.8878 124.082 20.5696C124.082 19.2401 124.324 18.0712 124.808 17.0629C125.293 16.0489 125.963 15.2602 126.819 14.6969C127.681 14.1279 128.673 13.8435 129.794 13.8435C130.915 13.8435 131.903 14.1279 132.76 14.6969C133.616 15.2659 134.286 16.0545 134.771 17.0629C135.261 18.0712 135.506 19.2401 135.506 20.5696C135.506 21.8878 135.264 23.0511 134.779 24.0594C134.295 25.0622 133.622 25.848 132.76 26.417C131.903 26.9859 130.915 27.2704 129.794 27.2704ZM129.794 25.8931C130.695 25.8931 131.458 25.6508 132.084 25.1664C132.709 24.6819 133.182 24.0369 133.503 23.2313C133.83 22.4258 133.993 21.5385 133.993 20.5696C133.993 19.6007 133.83 18.7106 133.503 17.8994C133.182 17.0882 132.709 16.4376 132.084 15.9475C131.458 15.4574 130.695 15.2123 129.794 15.2123C128.898 15.2123 128.135 15.4574 127.504 15.9475C126.878 16.4376 126.402 17.0882 126.076 17.8994C125.755 18.7106 125.594 19.6007 125.594 20.5696C125.594 21.5385 125.755 22.4258 126.076 23.2313C126.402 24.0369 126.878 24.6819 127.504 25.1664C128.129 25.6508 128.892 25.8931 129.794 25.8931Z" fill="white"/>
<path d="M144.665 27.2704C143.505 27.2704 142.494 26.9803 141.632 26.4001C140.776 25.8198 140.111 25.0255 139.638 24.0172C139.165 23.0088 138.928 21.8596 138.928 20.5696C138.928 19.2683 139.167 18.1107 139.646 17.0967C140.131 16.0827 140.801 15.2884 141.657 14.7138C142.514 14.1336 143.508 13.8435 144.64 13.8435C145.508 13.8435 146.294 14.0125 146.998 14.3505C147.702 14.6828 148.282 15.1532 148.738 15.7616C149.2 16.3644 149.49 17.0685 149.609 17.8741H148.088C147.93 17.1417 147.55 16.5165 146.947 15.9982C146.35 15.4743 145.589 15.2123 144.665 15.2123C143.837 15.2123 143.105 15.4377 142.469 15.8883C141.832 16.3334 141.333 16.9558 140.973 17.7558C140.618 18.5501 140.441 19.4711 140.441 20.5189C140.441 21.5723 140.615 22.5046 140.964 23.3158C141.314 24.1214 141.804 24.7523 142.435 25.2086C143.071 25.6649 143.815 25.8931 144.665 25.8931C145.24 25.8931 145.764 25.786 146.237 25.572C146.716 25.3523 147.116 25.0424 147.437 24.6425C147.764 24.2425 147.983 23.7665 148.096 23.2144H149.617C149.504 23.9975 149.226 24.696 148.781 25.31C148.341 25.9184 147.769 26.3972 147.065 26.7465C146.367 27.0958 145.567 27.2704 144.665 27.2704Z" fill="white"/>
<path d="M162.349 16.8685L160.972 17.2572C160.836 16.8685 160.645 16.5165 160.397 16.201C160.149 15.8855 159.825 15.6348 159.425 15.4489C159.031 15.263 158.541 15.1701 157.955 15.1701C157.076 15.1701 156.355 15.3785 155.792 15.7954C155.228 16.2123 154.947 16.7502 154.947 17.4093C154.947 17.967 155.138 18.4205 155.521 18.7698C155.91 19.1134 156.507 19.3866 157.313 19.5894L159.273 20.0711C160.36 20.3358 161.174 20.7555 161.715 21.3301C162.262 21.9047 162.535 22.6258 162.535 23.4933C162.535 24.2256 162.332 24.8763 161.926 25.4452C161.521 26.0142 160.955 26.462 160.228 26.7888C159.507 27.1099 158.67 27.2704 157.718 27.2704C156.451 27.2704 155.406 26.9859 154.583 26.417C153.761 25.8424 153.234 25.0143 153.003 23.9327L154.448 23.5778C154.634 24.3495 154.998 24.9326 155.538 25.3269C156.085 25.7213 156.803 25.9184 157.693 25.9184C158.69 25.9184 159.487 25.6959 160.084 25.2509C160.682 24.8002 160.98 24.2369 160.98 23.5609C160.98 23.037 160.805 22.5976 160.456 22.2427C160.107 21.8822 159.577 21.6174 158.868 21.4484L156.747 20.9414C155.62 20.671 154.786 20.2429 154.245 19.657C153.705 19.0711 153.434 18.3445 153.434 17.4769C153.434 16.7615 153.629 16.1334 154.017 15.5926C154.406 15.0462 154.941 14.618 155.623 14.3082C156.304 13.9984 157.082 13.8435 157.955 13.8435C159.144 13.8435 160.093 14.1139 160.803 14.6546C161.518 15.1898 162.034 15.9278 162.349 16.8685Z" fill="white"/>
</svg>
